# xmcd
#
# Track frame offsets:
#	150
#	19357
#	35815
#	57175
#	74817
#	88520
#	106917
#	130107
#	145782
#	159035
#	175880
#
# Disc length: 2661 seconds
#
# Revision: 0
# Processed by: cddbd v1.5.2PL0 Copyright (c) Steve Scherf et al.
# Submitted via: EZCDAudioConverter 1.3.4.1
#
DISCID=940a630b
DTITLE=Bob Marley and The Wailers - Catch A Fire 1/2
DYEAR=1972
DGENRE=
TTITLE0=Concrete Jungle
TTITLE1=Stir It Up
TTITLE2=High Tide Or Low Tide
TTITLE3=Stop That Train
TTITLE4=400 Years
TTITLE5=Baby We've Got A Date (Rock It Baby)
TTITLE6=Midnight Ravers
TTITLE7=All Day All Night
TTITLE8=Slave Driver
TTITLE9=Kinky Reggae
TTITLE10=No More Trouble
EXTD=
EXTT0=
EXTT1=
EXTT2=
EXTT3=
EXTT4=
EXTT5=
EXTT6=
EXTT7=
EXTT8=
EXTT9=
EXTT10=
PLAYORDER=
